HIERARCHY
ROOT Hips
{
	OFFSET 0.000000 0.000000 0.000000 
	CHANNELS 6 Xposition Yposition Zposition Zrotation Yrotation Xrotation
	JOINT LeftUpLeg
	{
		OFFSET 1.363060 -1.794630 0.839290 
		CHANNELS 3 Zrotation Yrotation Xrotation
		JOINT LeftLeg
		{
			OFFSET 2.448110 -6.726130 0.000000 
			CHANNELS 3 Zrotation Yrotation Xrotation
			JOINT LeftFoot
			{
				OFFSET 2.562200 -7.039590 0.000000 
				CHANNELS 3 Zrotation Yrotation Xrotation
				JOINT LeftToeBase
				{
					OFFSET 0.157640 -0.433110 2.322550 
					CHANNELS 3 Zrotation Yrotation Xrotation
					End Site
					{
						OFFSET 0.000000 0.000000 0.000000 
					}
				}
			}
		}
	}
	JOINT RightUpLeg
	{
		OFFSET -1.305520 -1.794630 0.839290 
		CHANNELS 3 Zrotation Yrotation Xrotation
		JOINT RightLeg
		{
			OFFSET -2.542530 -6.985550 0.000000 
			CHANNELS 3 Zrotation Yrotation Xrotation
			JOINT RightFoot
			{
				OFFSET -2.568260 -7.056230 0.000000 
				CHANNELS 3 Zrotation Yrotation Xrotation
				JOINT RightToeBase
				{
					OFFSET -0.164730 -0.452590 2.363150 
					CHANNELS 3 Zrotation Yrotation Xrotation
					End Site
					{
						OFFSET 0.000000 0.000000 0.000000 
					}
				}
			}
		}
	}
	JOINT Spine
	{
		OFFSET 0.028270 2.035590 -0.193380 
		CHANNELS 3 Zrotation Yrotation Xrotation
		JOINT Spine1
		{
			OFFSET 0.056720 2.048850 -0.042750 
			CHANNELS 3 Zrotation Yrotation Xrotation
			JOINT Neck1
			{
				OFFSET -0.054170 1.746240 0.172020 
				CHANNELS 3 Zrotation Yrotation Xrotation
				JOINT Head
				{
					OFFSET 0.104070 1.761360 -0.123970 
					CHANNELS 3 Zrotation Yrotation Xrotation
					End Site
					{
						OFFSET 0.000000 0.000000 0.000000 
					}
				}
			}
			JOINT LeftArm
			{
				OFFSET 3.362410 1.200890 -0.311210 
				CHANNELS 3 Zrotation Yrotation Xrotation
				JOINT LeftForeArm
				{
					OFFSET 4.983000 -0.000000 -0.000000 
					CHANNELS 3 Zrotation Yrotation Xrotation
					JOINT LeftHand
					{
						OFFSET 3.483560 -0.000000 -0.000000 
						CHANNELS 3 Zrotation Yrotation Xrotation
						JOINT LeftHandIndex1
						{
							OFFSET 0.715260 -0.000000 -0.000000 
							CHANNELS 3 Zrotation Yrotation Xrotation
							End Site
							{
								OFFSET 0.000000 0.000000 0.000000 
							}
						}
					}
				}
			}
			JOINT RightArm
			{
				OFFSET -3.136600 1.374050 -0.404650 
				CHANNELS 3 Zrotation Yrotation Xrotation
				JOINT RightForeArm
				{
					OFFSET -5.241900 -0.000000 -0.000000 
					CHANNELS 3 Zrotation Yrotation Xrotation
					JOINT RightHand
					{
						OFFSET -3.444170 -0.000000 -0.000000 
						CHANNELS 3 Zrotation Yrotation Xrotation
						JOINT RightHandIndex1
						{
							OFFSET -0.622530 -0.000000 -0.000000 
							CHANNELS 3 Zrotation Yrotation Xrotation
							End Site
							{
								OFFSET 0.000000 0.000000 0.000000 
							}
						}
					}
				}
			}
		}
	}
}
MOTION
Frames: 18
Frame Time: 0.041667
15.261947 17.888348 16.448239 4.842734 -69.754602 3.787180 -16.832645 6.830073 -21.033669 2.736007 11.082106 32.043793 0.463376 0.734799 -12.188212 0.890700 -6.015500 -16.829500 5.914837 0.951295 -28.451343 -6.373486 -14.673834 45.964394 2.301023 -12.572881 -12.007236 -0.007200 0.546800 -1.502600 1.774898 -5.391539 0.010156 5.056651 -3.259167 1.845745 24.340391 -30.458811 2.252104 8.130900 -15.366100 9.413600 -70.719458 -1.593314 12.490772 18.718413 -29.738155 -4.817860 0.727059 -1.052665 7.084125 -7.125000 0.000000 0.000000 46.058733 6.263929 8.142889 -16.579325 27.744954 -3.866725 0.751163 -0.053921 29.693756 7.125000 0.000000 0.000000 
15.241472 17.889733 16.400463 5.535050 -69.473040 3.054596 -16.841519 6.773903 -20.958293 2.730169 11.061008 31.979774 0.536512 0.093457 -11.865611 0.632100 -5.086900 -14.156500 5.094291 1.078093 -27.903509 -6.252040 -14.580885 45.501006 2.353101 -12.730488 -11.709615 -0.046700 1.394800 -3.835900 1.805410 -5.566736 0.075271 5.183877 -3.363098 1.941695 24.618685 -30.436325 1.964924 8.285900 -15.390500 9.398700 -70.270188 -1.640418 11.146209 18.615294 -29.633942 -4.757797 0.713619 -1.052495 7.626601 -7.125000 0.000000 0.000000 44.739460 6.521184 7.730165 -15.803365 26.618682 -3.500493 0.744633 -0.032474 29.885280 7.125000 0.000000 0.000000 
15.224063 17.886963 16.351005 6.034646 -69.614982 2.718565 -16.895713 7.033878 -21.333559 2.768772 11.116702 32.161403 0.588146 -0.203145 -11.984436 0.523400 -4.636600 -12.874900 4.244629 1.763932 -27.475904 -6.095507 -14.436013 44.871208 2.375450 -12.748864 -11.253005 -0.030000 1.117200 -3.071300 1.748145 -5.403175 0.077862 5.060287 -3.273218 1.913357 24.466018 -30.543025 1.750048 8.202700 -15.457100 9.278500 -69.599865 -1.747646 10.357642 18.528807 -29.543980 -4.704818 0.695781 -1.051271 7.819679 -7.125000 0.000000 0.000000 43.651993 6.275760 7.272112 -15.045130 25.490886 -3.165315 0.728584 -0.017849 30.249759 7.125000 0.000000 0.000000 
15.205763 17.883798 16.301943 5.493528 -69.586692 3.366597 -16.556497 7.240763 -21.673537 2.792862 11.159456 32.283914 0.600324 -0.267044 -12.014023 0.666100 -5.219400 -14.535300 3.790006 2.410202 -27.010893 -5.942941 -14.288184 44.252075 2.346267 -12.592052 -10.965381 -0.000400 -0.128900 0.354200 1.839575 -5.299489 0.070595 5.053192 -3.206850 1.825627 24.369151 -30.782757 1.612308 8.140400 -15.583300 9.300800 -69.138560 -1.769475 9.922855 18.538318 -29.573174 -4.707543 0.689867 -1.047086 7.614253 -7.125000 0.000000 0.000000 42.456711 5.713383 7.046972 -14.473401 24.632097 -2.930575 0.708393 -0.021273 30.407208 7.125000 0.000000 0.000000 
15.189343 17.875588 16.251497 5.131986 -69.202208 3.752361 -16.229048 7.230478 -21.859518 2.819734 11.204431 32.416228 0.594550 -0.333460 -11.786610 0.905600 -6.064300 -16.971000 3.351365 2.538081 -26.525045 -5.794874 -14.151475 43.648084 2.350946 -12.550635 -10.494437 -0.020600 -0.925700 2.544500 1.901181 -5.240922 0.136917 4.948405 -3.175895 1.834672 24.740744 -31.194493 1.339225 8.181900 -15.791700 9.434600 -68.683652 -2.188590 9.182743 18.440954 -29.460106 -4.650240 0.684630 -1.044209 7.966132 -7.125000 0.000000 0.000000 41.459873 4.927375 6.674815 -14.047169 23.983559 -2.748349 0.701694 -0.035413 30.352904 7.125000 0.000000 0.000000 
15.171539 17.876280 16.201050 5.619105 -68.861466 3.163760 -16.196343 7.081749 -21.779144 2.853143 11.250378 32.573104 0.598007 -0.431896 -11.638015 0.968000 -6.264200 -17.552800 2.639740 2.388798 -25.957313 -5.649356 -14.029653 43.064807 2.420505 -12.774031 -10.033988 -0.053500 -1.493200 4.107100 1.859671 -5.298279 0.175012 4.789890 -3.200548 1.716569 24.987245 -31.321627 1.046768 8.249800 -15.877600 9.416200 -67.989923 -2.257395 8.451310 18.366105 -29.379107 -4.599789 0.676620 -1.040502 8.129272 -7.125000 0.000000 0.000000 40.557398 4.193017 6.946846 -13.665795 23.382680 -2.579094 0.704563 -0.050970 30.371725 7.125000 0.000000 0.000000 
15.154525 17.877962 16.146251 6.272127 -68.691469 2.402741 -16.221806 6.989972 -21.686270 2.887378 11.295047 32.730396 0.617540 -0.591418 -11.597188 0.854800 -5.896200 -16.483500 1.882887 2.527723 -25.346065 -5.506964 -13.905522 42.481246 2.557078 -13.275819 -9.681830 -0.073700 -1.751600 4.819800 1.805447 -5.434816 0.192281 4.695192 -3.263687 1.562143 25.108691 -31.068865 0.557870 8.373300 -15.811400 9.140400 -67.222161 -1.938140 7.851881 18.400095 -29.450066 -4.613703 0.673697 -1.032650 7.978171 -7.125000 0.000000 0.000000 39.668176 3.957561 7.225097 -13.122996 22.530221 -2.372431 0.689650 -0.062338 31.083204 7.125000 0.000000 0.000000 
15.137017 17.868169 16.079878 6.349275 -68.619320 2.321664 -16.023299 7.193840 -21.880026 2.917207 11.338022 32.867416 0.604191 -0.630237 -11.315587 1.043200 -6.495400 -18.228800 1.374851 3.157825 -24.782656 -5.364764 -13.763413 41.855418 2.786203 -14.142513 -9.350997 -0.075600 -1.773600 4.880500 1.745490 -5.432791 0.287652 4.481949 -3.263213 1.663969 24.863334 -30.971883 0.306472 8.249500 -15.766800 8.891100 -66.457694 -1.993905 6.960120 18.383171 -29.461519 -4.603986 0.677104 -1.023442 8.245886 -7.125000 0.000000 0.000000 39.066604 3.812548 6.689136 -12.527422 21.605535 -2.171393 0.658269 -0.069548 32.454374 7.125000 0.000000 0.000000 
15.115256 17.851057 16.016672 6.512023 -68.361537 2.188735 -15.821789 7.209192 -21.994372 2.946230 11.373896 32.986038 0.649647 -1.076469 -11.050958 1.042800 -6.494400 -18.226000 0.772578 3.486758 -24.267046 -5.211198 -13.613932 41.201797 2.953625 -14.782810 -9.179915 -0.126000 -2.288000 6.302400 1.698409 -5.483093 0.361291 4.250301 -3.284801 1.766641 24.475616 -31.111904 0.366341 8.053300 -15.814800 8.844200 -65.705617 -2.100015 6.099100 18.313008 -29.403502 -4.570346 0.683247 -1.012539 8.418117 -7.125000 0.000000 0.000000 38.500600 3.151155 6.503571 -12.228142 21.143423 -2.078299 0.635860 -0.074688 33.407886 7.125000 0.000000 0.000000 
15.093989 17.829592 15.959202 7.101225 -67.888949 1.536149 -15.756105 6.952310 -21.923657 2.994112 11.434900 33.196145 0.712057 -1.597496 -10.920968 0.881000 -5.983500 -16.736400 0.001743 3.320251 -23.648087 -5.037116 -13.454613 40.495916 3.042854 -15.132281 -9.169736 -0.214500 -2.982000 8.228500 1.702432 -5.651916 0.391881 4.212716 -3.367449 1.677010 24.690375 -31.146136 0.014229 8.174700 -15.874600 8.797200 -65.079571 -1.968441 5.914020 18.330479 -29.446792 -4.579806 0.679422 -1.005842 7.899560 -7.125000 0.000000 0.000000 37.579861 2.306163 7.293508 -12.020159 20.800335 -2.021841 0.609841 -0.068042 33.332491 7.125000 0.000000 0.000000 
15.069557 17.814458 15.882048 6.381346 -67.575379 1.952182 -15.183066 7.158578 -21.982899 3.032869 11.499171 33.390328 0.654161 -1.294845 -10.660941 1.367600 -7.401300 -20.910000 0.066604 3.260838 -22.935926 -4.882535 -13.298023 39.801089 3.284099 -16.062667 -9.019980 -0.187100 -2.785700 7.682800 1.769564 -5.606676 0.508806 4.147370 -3.346049 1.602883 25.133992 -31.159086 -0.523491 8.331600 -15.925700 8.697400 -64.522954 -2.088269 5.704900 18.352667 -29.489112 -4.587272 0.669986 -1.003019 7.692388 -7.125000 0.000000 0.000000 36.794954 1.391811 7.962361 -11.726086 20.304712 -1.923012 0.593880 -0.065965 32.976839 7.125000 0.000000 0.000000 
15.042751 17.830087 15.799256 5.551304 -67.347758 2.526241 -14.411848 7.071612 -21.909025 3.100915 11.586100 33.669458 0.772007 -2.321938 -10.329381 0.934400 -6.157400 -17.241900 0.294153 3.295690 -22.267791 -4.732228 -13.132840 39.084715 3.566797 -17.142340 -8.708971 -0.128800 -2.313500 6.372800 1.813949 -5.442189 0.635740 4.051153 -3.265812 1.563407 25.371228 -31.331480 -0.846587 8.334300 -16.022700 8.646500 -64.016583 -2.465611 4.831262 18.274962 -29.408950 -4.549998 0.661354 -0.999406 8.259950 -7.125000 0.000000 0.000000 36.470796 0.398604 7.397816 -11.422677 19.792064 -1.794313 0.606456 -0.079264 33.858679 7.125000 0.000000 0.000000 
15.021187 17.822371 15.727146 6.223227 -67.159324 1.957031 -14.362110 6.774556 -22.080677 3.165167 11.675385 33.968443 0.819845 -2.687034 -10.347217 0.772000 -5.610400 -15.658200 -0.319333 3.328750 -21.970399 -4.602982 -12.986652 38.483195 3.777892 -17.944244 -8.444598 -0.148100 -2.480000 6.834200 1.841779 -5.524959 0.628035 4.241360 -3.309651 1.463956 25.330178 -31.399170 -0.981117 8.323200 -16.067800 8.622300 -63.680657 -2.318591 3.851032 18.283520 -29.452231 -4.565886 0.654423 -0.994742 8.368487 -7.125000 0.000000 0.000000 35.924128 -0.316285 7.244110 -11.230169 19.443907 -1.707086 0.618093 -0.077066 34.880964 7.125000 0.000000 0.000000 
14.997151 17.814161 15.650586 6.280965 -67.079685 1.949289 -14.032670 6.575269 -22.282122 3.236893 11.773366 34.286951 0.897295 -3.335815 -10.268430 0.404000 -4.080800 -11.304100 -0.602010 3.331922 -21.749286 -4.492905 -12.846920 37.937106 3.967328 -18.659116 -8.104375 -0.142500 -2.432600 6.702700 2.168333 -5.999587 0.627225 5.269398 -3.574508 1.498044 24.828427 -30.933688 -1.107733 8.282800 -15.836700 8.450100 -63.897669 -1.405944 2.280023 18.500824 -29.788237 -4.695116 0.655160 -0.993648 8.250566 -7.125000 0.000000 0.000000 34.559062 -0.192701 9.150463 -11.262103 19.440493 -1.720291 0.610845 -0.040720 33.589617 7.125000 0.000000 0.000000 
14.969356 17.811194 15.561760 5.661890 -66.836858 2.428246 -13.380653 6.496016 -22.326215 3.279118 11.834284 34.475922 0.897428 -3.523521 -9.901749 0.522300 -4.631500 -12.860600 -0.453865 3.260036 -21.363527 -4.399197 -12.745545 37.516933 4.066189 -19.041219 -8.252718 -0.125100 -2.279900 6.279900 2.189973 -5.973534 0.808407 5.122033 -3.574616 1.709311 25.090598 -30.933849 -1.604571 8.330400 -15.860200 8.313400 -63.057494 -1.347015 2.285728 18.721461 -30.107848 -4.815857 0.664927 -0.981810 7.910046 -7.125000 0.000000 0.000000 34.377415 -1.002607 9.142483 -11.245038 19.420607 -1.728349 0.593192 -0.022340 32.608674 7.125000 0.000000 0.000000 
14.943242 17.793587 15.469274 5.979031 -66.469625 2.129643 -13.132718 6.346462 -22.469180 3.300301 11.878580 34.611227 0.800597 -2.767626 -9.880385 1.717800 -8.251700 -23.481100 -0.742832 3.303420 -21.069600 -4.314605 -12.660138 37.163529 4.169625 -19.442753 -8.600833 -0.091600 -1.951600 5.371900 2.046105 -5.806150 0.927989 4.687729 -3.489359 1.789920 25.510709 -31.125633 -2.018064 8.393000 -15.984500 8.245300 -61.971738 -1.559212 2.836537 18.884519 -30.335743 -4.902157 0.676142 -0.966243 7.159624 -7.125000 0.000000 0.000000 34.676143 -2.192459 7.612490 -11.066335 19.148385 -1.662707 0.592981 -0.033823 33.265060 7.125000 0.000000 0.000000 
14.916733 17.782706 15.377579 5.916061 -66.291817 2.288973 -12.700118 6.235108 -22.665834 3.317121 11.909803 34.699203 0.781546 -2.605578 -9.891018 2.432000 -9.713100 -28.052700 -0.883998 3.573119 -20.944800 -4.251339 -12.572660 36.811834 4.337290 -20.071018 -8.208458 -0.023600 -0.992600 2.728600 1.936142 -5.649811 1.032556 4.265350 -3.403588 1.900449 25.590368 -31.284308 -2.326314 8.316100 -16.071800 8.122100 -61.142506 -1.922277 2.561505 18.919059 -30.399969 -4.919190 0.678196 -0.956198 6.836969 -7.125000 0.000000 0.000000 34.955835 -3.343118 6.264066 -10.870867 18.839370 -1.578380 0.608886 -0.048994 34.375507 7.125000 0.000000 0.000000 
14.889927 17.790125 15.285984 5.459566 -66.338228 2.735746 -12.051475 6.035804 -22.653014 3.338736 11.936093 34.778055 0.796188 -3.026024 -9.246412 2.213200 -9.296600 -26.727800 -0.837807 3.866638 -20.786036 -4.188573 -12.471774 36.411468 4.441587 -20.471970 -7.216265 -0.003000 -0.352300 0.968000 1.954249 -5.498666 1.151648 4.150912 -3.329881 1.985170 25.570169 -31.466726 -2.518448 8.220100 -16.154100 8.102400 -60.760822 -2.245189 1.797340 18.880781 -30.364349 -4.889078 0.660598 -0.961013 7.264182 -7.125000 0.000000 0.000000 34.867099 -4.464858 6.010143 -10.798241 18.711288 -1.538518 0.620746 -0.045865 34.507319 7.125000 0.000000 0.000000 
